<svg width="38" height="35" viewBox="0 0 38 35" fill="none" xmlns="http://www.w3.org/2000/svg">
<path d="M23.3906 30H14.625V16.8047C14.625 15.4609 14.0703 14.7891 12.9609 14.7891C11.8672 14.7891 11.3203 15.4609 11.3203 16.8047V30H2.55469V16.9688C2.55469 13.9219 3.5625 11.3594 5.57812 9.28125C7.59375 7.1875 10.0625 6.14062 12.9844 6.14062C16.3281 6.14062 19.0078 7.35156 21.0234 9.77344C22.6016 11.6641 23.3906 14.2969 23.3906 17.6719V30Z" fill="url(#paint0_linear_567_19)"/>
<path d="M29.5391 21.25C30.8151 21.25 31.9089 21.7122 32.8203 22.6367C33.7448 23.5612 34.207 24.6615 34.207 25.9375C34.207 27.2135 33.7513 28.3008 32.8398 29.1992C31.9284 30.0846 30.8281 30.5273 29.5391 30.5273C28.1979 30.5273 27.0911 30.0977 26.2188 29.2383C25.3594 28.3659 24.9297 27.2591 24.9297 25.918C24.9297 24.6159 25.3789 23.5156 26.2773 22.6172C27.1758 21.7057 28.263 21.25 29.5391 21.25Z" fill="url(#paint1_linear_567_19)"/>
<defs>
<linearGradient id="paint0_linear_567_19" x1="26" y1="2.90755" x2="2.25896" y2="33.827" gradientUnits="userSpaceOnUse">
<stop offset="0.144998" stop-color="#FF5B04"/>
<stop offset="1" stop-color="#993702"/>
</linearGradient>
<linearGradient id="paint1_linear_567_19" x1="33.4286" y1="21.4138" x2="24.6878" y2="33.2958" gradientUnits="userSpaceOnUse">
<stop stop-color="#FF5B04"/>
<stop offset="1" stop-color="#993702"/>
</linearGradient>
</defs>
</svg>
